# xmcd
#
# Track frame offsets:
#	187
#	11880
#	24492
#	35577
#	48020
#	63115
#	77345
#	88475
#
# Disc length: 1310 seconds
#
# Revision: 1
# Processed by: cddbd v1.4PL0 Copyright (c) Steve Scherf et al.
# Submitted via: audiograbber 1.81.00
#
DISCID=58051c08
DTITLE=Hank Snow - Collector's Series Vol.2
DYEAR=1900
DGENRE=Country
TTITLE0=Monologue
TTITLE1=Tumbling Tumbleweeds
TTITLE2=Sentimental Journey
TTITLE3=I'm Movin' On
TTITLE4=I Almost Lost My Mind
TTITLE5=Today I Started Loving You Again
TTITLE6=Ramblin' Rose
TTITLE7=Hula Love
EXTD=
EXTT0=
EXTT1=
EXTT2=
EXTT3=
EXTT4=
EXTT5=
EXTT6=
EXTT7=
PLAYORDER=
